<svg width="64" height="64" viewBox="0 0 64 64" fill="none" xmlns="http://www.w3.org/2000/svg">
<rect width="64" height="64" rx="21" fill="#E4E6FF"/>
<g clip-path="url(#clip0_189_388)">
<path d="M48.5608 29.5058C48.9812 28.3949 49.127 27.2179 48.9885 26.0534C48.85 24.8889 48.4305 23.7639 47.758 22.7536C46.7611 21.2256 45.2382 20.0158 43.4093 19.2988C41.5804 18.5818 39.5398 18.3946 37.5821 18.7644C36.6991 17.8887 35.6138 17.189 34.3986 16.7123C33.1835 16.2356 31.8667 15.9928 30.5363 16.0002C28.5348 15.9959 26.5834 16.5511 24.9635 17.5858C23.3437 18.6204 22.139 20.081 21.5233 21.757C20.2194 21.9919 18.9875 22.4692 17.9102 23.1569C16.8329 23.8447 15.935 24.727 15.2766 25.7449C14.2717 27.2688 13.8427 29.034 14.0516 30.7863C14.2604 32.5385 15.0963 34.187 16.4387 35.4942C16.0184 36.6051 15.8726 37.7821 16.011 38.9466C16.1495 40.1111 16.569 41.2361 17.2415 42.2464C18.2385 43.7744 19.7614 44.9841 21.5903 45.7011C23.4192 46.4181 25.4598 46.6053 27.4174 46.2356C28.3004 47.1113 29.3858 47.8109 30.6009 48.2877C31.816 48.7644 33.1328 49.0072 34.4632 48.9998C36.4658 49.0045 38.4181 48.449 40.0386 47.4137C41.6591 46.3784 42.864 44.9167 43.4792 43.2398C44.7831 43.0049 46.0149 42.5276 47.0923 41.8398C48.1695 41.1521 49.0674 40.2697 49.7259 39.2518C50.7296 37.7281 51.1575 35.9633 50.9481 34.2117C50.7388 32.4602 49.9028 30.8124 48.5608 29.5058ZM34.4662 46.8425C32.8223 46.8446 31.2301 46.338 29.9678 45.4113C30.0247 45.384 30.1246 45.3358 30.1896 45.3008L37.6561 41.5054C37.8435 41.4116 37.9991 41.2755 38.1069 41.1112C38.2148 40.9468 38.271 40.7602 38.2696 40.5706V31.3072L41.4256 32.9109C41.4421 32.9181 41.4563 32.9288 41.4671 32.9421C41.4778 32.9554 41.4845 32.9708 41.4869 32.9869V40.6583C41.4845 42.2969 40.7443 43.8678 39.4284 45.0269C38.1124 46.1861 36.328 46.839 34.4662 46.8425ZM19.3676 41.1678C18.5442 39.9158 18.2475 38.4488 18.5293 37.0236C18.5847 37.0529 18.6816 37.105 18.7511 37.1401L26.2175 40.9355C26.4036 41.0312 26.6153 41.0817 26.8308 41.0817C27.0462 41.0817 27.2579 41.0312 27.444 40.9355L36.5598 36.3035V39.5108C36.5608 39.5271 36.5573 39.5435 36.5494 39.5584C36.5415 39.5732 36.5296 39.5862 36.5147 39.596L28.9669 43.431C27.3524 44.2493 25.435 44.4705 23.6354 44.0462C21.8358 43.6219 20.3009 42.5867 19.3676 41.1678ZM17.4034 26.8235C18.2232 25.5698 19.5181 24.61 21.0612 24.112C21.0612 24.1686 21.0575 24.2688 21.0575 24.3384V31.9291C21.0562 32.1187 21.1123 32.3051 21.22 32.4694C21.3277 32.6336 21.4832 32.7695 21.6704 32.8633L30.7861 37.4947L27.6303 39.0983C27.6147 39.1073 27.5968 39.1128 27.5783 39.1143C27.5597 39.1158 27.541 39.1132 27.5238 39.1068L19.9753 35.2685C18.3636 34.4471 17.1879 33.0969 16.7057 31.5138C16.2236 29.9308 16.4745 28.2441 17.4034 26.8235ZM43.3321 32.1334L34.2163 27.5014L37.3722 25.8984C37.3878 25.8894 37.4057 25.8839 37.4242 25.8824C37.4428 25.8809 37.4614 25.8836 37.4786 25.89L45.0272 29.725C46.1837 30.3129 47.1258 31.1785 47.7435 32.2206C48.3611 33.2626 48.6286 34.4379 48.5147 35.6089C48.4008 36.7799 47.91 37.8981 47.1001 38.8326C46.2902 39.7671 45.1944 40.4792 43.9412 40.8854C43.9412 40.8281 43.9412 40.728 43.9412 40.6583V33.0676C43.943 32.8783 43.8875 32.6921 43.7804 32.5279C43.6734 32.3637 43.5187 32.2276 43.3321 32.1334ZM46.4732 27.9731C46.4177 27.9431 46.3209 27.8917 46.2514 27.8567L38.7849 24.0612C38.5988 23.9657 38.3872 23.9153 38.1717 23.9153C37.9563 23.9153 37.7446 23.9657 37.5585 24.0612L28.4427 28.6933V25.486C28.4417 25.4696 28.4452 25.4533 28.4531 25.4384C28.461 25.4236 28.4729 25.4106 28.4878 25.4008L36.0356 21.569C37.1919 20.9822 38.5142 20.6973 39.8478 20.7477C41.1814 20.7981 42.471 21.1816 43.5659 21.8534C44.6608 22.5252 45.5157 23.4576 46.0306 24.5413C46.5454 25.625 46.699 26.8153 46.4732 27.9731ZM26.7269 33.6896L23.5703 32.0859C23.5538 32.0787 23.5394 32.0679 23.5287 32.0547C23.5181 32.0414 23.5112 32.026 23.509 32.0098V24.3384C23.5098 23.1634 23.891 22.013 24.6078 21.0217C25.3247 20.0305 26.3475 19.2394 27.5567 18.7412C28.7659 18.2429 30.1112 18.0581 31.4354 18.2083C32.7597 18.3585 34.0079 18.8375 35.0339 19.5893C34.977 19.6166 34.8779 19.6648 34.8121 19.6999L27.3457 23.4953C27.1583 23.589 27.0027 23.7249 26.8948 23.8892C26.787 24.0533 26.7309 24.2398 26.7321 24.4294L26.7269 33.6896ZM28.4412 30.4368L32.5012 28.3732L36.5612 30.4354V34.5613L32.5012 36.6236L28.4412 34.5613V30.4368Z" fill="#B1B4D9"/>
</g>
<defs>
<clipPath id="clip0_189_388">
<rect width="37" height="33" fill="white" transform="translate(14 16)"/>
</clipPath>
</defs>
</svg>
